<svg id="Component_16_5" data-name="Component 16 – 5" xmlns="http://www.w3.org/2000/svg" width="33" height="36.241" viewBox="0 0 33 36.241">
  <path id="Path_12" data-name="Path 12" d="M-582.4,809.321a3.135,3.135,0,0,0,.229-1.169,3.074,3.074,0,0,0-3.073-3.073,3.074,3.074,0,0,0-3.07,3.073c0,.057,0,.109.008.166h-18.6a5.9,5.9,0,0,0-5.881,5.885v21.236a5.9,5.9,0,0,0,5.881,5.881h21.237a5.9,5.9,0,0,0,5.881-5.881V814.2A5.89,5.89,0,0,0-582.4,809.321Zm-1.047,8.913v19.739h-3.589v-3.528l-.217.652-.278.64-.3.6-.367.535-.186.233-.2.218-.447.35-.233.129-.246.1-.249.06-.263.012h-3.657l-.814-5.853,1.828.044.553-.015.568-.029.564-.117.262-.084.245-.117.105-.129.084-.161.073-.161.06-.173.028-.189.016-.206-.016-.436-.072-.447-.129-.467-.15-.48-.185-.451-2.107-4.2,1.656-3.193.217-.508.19-.468.117-.407.088-.362.024-.335-.011-.29-.044-.245-.088-.218-.114-.173-.161-.161-.173-.117-.218-.1-.233-.074-.25-.043-.274-.029h-1.756l.057.959.016.972-.032.974-.084.974-.117.959-.145.925-.189.875-.1.407-.1.4-.129.422-.161.423-.363.885-.221.464-.23.463-.539.947-.274.479-.306.48-.653.958-.7.942-.362.464-.363.468v5.546h-2.92v-3.134l-.641,3.134h-6.768v-26.3h3.586l-.012,10.239-.016,10.256h3.851V818.643h2.92v6.883l.286-.494.351-.609.351-.667.33-.726.306-.757.245-.771.105-.39.072-.364.045-.377.012-.347-.028-.8-.1-.569-.089-.2-.084-.161-.1-.129-.117-.089-.29-.085-.346-.015-.858.028h-3.835l.829-6.3h3.835l.363.012.362.06.318.084.318.134.294.156.274.19.262.216.234.25.229.262.2.3.347.652.161.367.145.374.129.394.105.419.536-3.907h2.992l.351.015.331.089.306.114.306.161.29.216.262.25.245.29.222.319.213.345.177.379.157.424.133.434.1.451.073.479.061.493.012.506-.028,1.165-.073,1.015-.133.932-.073.451-.084.419-.217.845-.246.843-.612,1.813.4.915.475,1.18.5,1.393.234.754.2.786V811.669h3.589Zm-1.8-7.463a2.624,2.624,0,0,1-2.615-2.62,2.621,2.621,0,0,1,2.615-2.614,2.624,2.624,0,0,1,2.618,2.614A2.627,2.627,0,0,1-585.247,810.771Z" transform="translate(612.793 -805.079)" fill="#fff" fill-rule="evenodd"/>
</svg>
